# Blender v2.91.0 OBJ File: 'table.blend'
# www.blender.org
o sites_Plane
v 0.377539 4.840110 -1.317389
v 0.377520 4.538859 -1.316529
v 2.377061 4.840110 -1.273705
v 2.377042 4.538860 -1.272845
v 0.346970 4.839164 0.081780
v 0.346970 4.538191 0.081780
v 2.346493 4.538191 0.125465
v 2.346493 4.839164 0.125465
vt 0.433192 0.974450
vt 0.018603 0.974450
vt 0.017353 0.026738
vt 0.431533 0.027005
vt 0.980502 0.976323
vt 0.579901 0.976322
vt 0.578242 0.027005
vt 0.979252 0.028201
vn 0.0000 -1.0000 -0.0005
vn -0.0000 1.0000 0.0007
vn -0.0218 0.0000 0.9998
s 1
f 6/1/1 2/2/1 4/3/1 7/4/1
f 1/5/2 5/6/2 8/7/2 3/8/2
f 5/6/3 6/1/3 7/4/3 8/7/3
