
o Plane.019
v 0.349791 4.828605 0.073839
v 2.349314 4.828605 0.117524
v 0.380266 4.828605 -1.321028
v 2.379788 4.828605 -1.277343
v 0.349791 4.809850 0.073839
v 2.349314 4.809850 0.117524
v 0.380266 4.809850 -1.321028
v 2.379788 4.809850 -1.277343
v 0.349791 4.799048 0.073839
v 2.349314 4.799048 0.117524
v 0.380266 4.799048 -1.321028
v 2.379788 4.799048 -1.277343
v 0.349791 4.785545 0.073839
v 2.349314 4.785545 0.117524
v 0.380266 4.785545 -1.321028
v 2.379788 4.785545 -1.277343
v 0.349791 4.774742 0.073839
v 2.349314 4.774742 0.117524
v 0.380266 4.774742 -1.321028
v 2.379788 4.774742 -1.277343
v 0.349791 4.758539 0.073839
v 2.349314 4.758539 0.117524
v 0.380266 4.758539 -1.321028
v 2.379788 4.758539 -1.277343
v 0.349791 4.745036 0.073839
v 2.349314 4.745036 0.117524
v 0.380266 4.745036 -1.321028
v 2.379788 4.745036 -1.277343
v 0.349791 4.731533 0.073839
v 2.349314 4.731533 0.117524
v 0.380266 4.731533 -1.321028
v 2.379788 4.731533 -1.277343
v 0.349791 4.718029 0.073839
v 2.349314 4.718029 0.117524
v 0.380266 4.718029 -1.321028
v 2.379788 4.718029 -1.277343
v 0.349791 4.699125 0.073839
v 2.349314 4.699125 0.117524
v 0.380266 4.699125 -1.321028
v 2.379788 4.699125 -1.277343
v 0.349791 4.680221 0.073839
v 2.349314 4.680221 0.117524
v 0.380266 4.680221 -1.321028
v 2.379788 4.680221 -1.277343
v 0.349791 4.664017 0.073839
v 2.349314 4.664017 0.117524
v 0.380266 4.664017 -1.321028
v 2.379788 4.664017 -1.277343
v 0.349791 4.647813 0.073839
v 2.349314 4.647813 0.117524
v 0.380266 4.647813 -1.321028
v 2.379788 4.647813 -1.277343
v 0.349791 4.631609 0.073839
v 2.349314 4.631609 0.117524
v 0.380266 4.631609 -1.321028
v 2.379788 4.631609 -1.277343
v 0.349791 4.620807 0.073839
v 2.349314 4.620807 0.117524
v 0.380266 4.620807 -1.321028
v 2.379788 4.620807 -1.277343
v 0.349791 4.601903 0.073839
v 2.349314 4.601903 0.117524
v 0.380266 4.601903 -1.321028
v 2.379788 4.601903 -1.277343
v 0.349791 4.582998 0.073839
v 2.349314 4.582998 0.117524
v 0.380266 4.582998 -1.321028
v 2.379788 4.582998 -1.277343
v 0.349791 4.569495 0.073839
v 2.349314 4.569495 0.117524
v 0.380266 4.569495 -1.321028
v 2.379788 4.569495 -1.277343
v 0.349791 4.555992 0.073839
v 2.349314 4.555992 0.117524
v 0.380266 4.555992 -1.321028
v 2.379788 4.555992 -1.277343
vn 0.0000 1.0000 -0.0000
usemtl Material.009
s 1
f 1//1 2//1 4//1 3//1
f 5//1 6//1 8//1 7//1
f 9//1 10//1 12//1 11//1
f 13//1 14//1 16//1 15//1
f 17//1 18//1 20//1 19//1
f 21//1 22//1 24//1 23//1
f 25//1 26//1 28//1 27//1
f 29//1 30//1 32//1 31//1
f 33//1 34//1 36//1 35//1
f 37//1 38//1 40//1 39//1
f 41//1 42//1 44//1 43//1
f 45//1 46//1 48//1 47//1
f 49//1 50//1 52//1 51//1
f 53//1 54//1 56//1 55//1
f 57//1 58//1 60//1 59//1
f 61//1 62//1 64//1 63//1
f 65//1 66//1 68//1 67//1
f 69//1 70//1 72//1 71//1
f 73//1 74//1 76//1 75//1
o sites_Plane
v 0.377539 4.840110 -1.317389
v 0.377520 4.538859 -1.316529
v 2.377061 4.840110 -1.273705
v 2.377042 4.538860 -1.272845
v 0.346970 4.839164 0.081780
v 0.346970 4.538191 0.081780
v 2.346493 4.538191 0.125465
v 2.346493 4.839164 0.125465
vt 0.433192 0.974450
vt 0.018603 0.974450
vt 0.017353 0.026738
vt 0.431533 0.027005
vt 0.980502 0.976323
vt 0.579901 0.976322
vt 0.578242 0.027005
vt 0.979252 0.028201
vn 0.0000 -1.0000 -0.0005
vn -0.0000 1.0000 0.0007
vn -0.0218 0.0000 0.9998
usemtl Material.008
s off
f 82/1/2 78/2/2 80/3/2 83/4/2
f 77/5/3 81/6/3 84/7/3 79/8/3
f 81/6/4 82/1/4 83/4/4 84/7/4
