# Blender v2.91.0 OBJ File: 'table.blend'
# www.blender.org
o Cube.003_Cube.001
v 0.661536 4.579944 1.987162
v 0.522152 4.579944 2.174307
v 0.193654 4.579944 1.929644
v 0.333038 4.579944 1.742499
v 0.731200 5.127561 2.009159
v 0.563180 5.127561 2.234751
v 0.123991 5.127561 1.907647
v 0.292010 5.127561 1.682055
v 0.274131 4.867010 2.049855
v 0.433732 5.042708 2.179359
v 0.214137 5.042708 2.015807
v 0.329030 4.867010 2.090743
v 0.661536 4.579944 1.987162
v 0.522152 4.579944 2.174307
v 0.193654 4.579944 1.929644
v 0.333038 4.579944 1.742499
v 0.383928 4.867010 2.131630
v 0.534473 5.148759 1.814902
v 0.492175 5.148759 1.783398
v 0.576772 5.148759 1.846406
v 0.591844 4.579944 2.080734
v 0.497287 4.579944 1.864830
v 0.696368 4.853753 1.998160
v 0.357903 4.579944 2.051975
v 0.542666 4.853753 2.204529
v 0.263346 4.579944 1.836072
v 0.158823 4.853753 1.918646
v 0.312524 4.853753 1.712277
v 0.647190 5.127561 2.121955
v 0.392092 5.138160 1.732726
v 0.169064 5.085135 1.961727
v 0.208000 5.127561 1.794851
v 0.301580 4.867010 2.070298
v 0.498456 5.085135 2.207055
v 0.244134 4.954859 2.032831
v 0.356479 4.867010 2.111187
v 0.591844 4.579944 2.080734
v 0.497287 4.579944 1.864830
v 0.357903 4.579944 2.051975
v 0.263346 4.579944 1.836072
v 0.408830 4.954859 2.155495
v 0.555623 5.148759 1.830654
v 0.513324 5.148759 1.799150
v 0.653986 5.138160 1.927783
v 0.235673 4.853753 1.815461
v 0.619517 4.853753 2.101345
v 0.427595 4.579944 1.958403
v 0.556998 4.579944 2.127520
v 0.415163 4.579944 1.803665
v 0.713784 4.990657 2.003660
v 0.275779 4.579944 1.990810
v 0.552923 4.990657 2.219640
v 0.298192 4.579944 1.789286
v 0.141407 4.990657 1.913146
v 0.302267 4.990657 1.697166
v 0.605185 5.127561 2.178353
v 0.342051 5.132861 1.707390
v 0.146527 5.106348 1.934687
v 0.250005 5.127561 1.738453
v 0.287856 4.867010 2.060076
v 0.466094 5.063921 2.193208
v 0.229136 4.998784 2.024319
v 0.342754 4.867010 2.100965
v 0.556998 4.579944 2.127520
v 0.415163 4.579944 1.803665
v 0.275779 4.579944 1.990810
v 0.298192 4.579944 1.789286
v 0.396379 4.910934 2.143563
v 0.545048 5.148759 1.822778
v 0.502749 5.148759 1.791274
v 0.615379 5.143460 1.887094
v 0.626690 4.579944 2.033948
v 0.579412 4.579944 1.925996
v 0.678952 4.716848 1.992661
v 0.440028 4.579944 2.113141
v 0.532409 4.716848 2.189418
v 0.228500 4.579944 1.882858
v 0.176238 4.716848 1.924145
v 0.322781 4.716848 1.727388
v 0.689195 5.127561 2.065557
v 0.442133 5.143460 1.758062
v 0.191601 5.063921 1.988767
v 0.165996 5.127561 1.851249
v 0.315305 4.867010 2.080520
v 0.530818 5.106348 2.220903
v 0.259133 4.910934 2.041342
v 0.370204 4.867010 2.121408
v 0.626690 4.579944 2.033948
v 0.579412 4.579944 1.925996
v 0.440028 4.579944 2.113141
v 0.228500 4.579944 1.882858
v 0.421281 4.998784 2.167427
v 0.566198 5.148759 1.838530
v 0.523899 5.148759 1.807026
v 0.692593 5.132861 1.968471
v 0.274099 4.853753 1.763869
v 0.197248 4.853753 1.867054
v 0.249510 4.716848 1.825767
v 0.221837 4.990657 1.805156
v 0.581092 4.853753 2.152937
v 0.657942 4.853753 2.049752
v 0.605680 4.716848 2.091039
v 0.633353 4.990657 2.111650
v 0.345471 4.579944 1.897237
v 0.509720 4.579944 2.019568
v 0.462441 4.579944 1.911617
v 0.392749 4.579944 2.005189
v 0.474874 4.579944 2.066355
v 0.544566 4.579944 1.972782
v 0.380317 4.579944 1.850451
v 0.673569 4.990657 2.057655
v 0.642316 4.716848 2.041850
v 0.569045 4.716848 2.140229
v 0.181622 4.990657 1.859151
v 0.212874 4.716848 1.874956
v 0.286146 4.716848 1.776577
v 0.262052 4.990657 1.751161
v 0.593138 4.990657 2.165645
v 0.310625 4.579944 1.944024
v 0.235527 4.579944 1.960831
v 0.480257 4.579944 2.143103
v 0.278970 4.579944 1.993187
v 0.317404 4.579944 2.021812
v 0.277049 4.867010 2.052028
v 0.379017 4.867010 2.127973
v 0.398177 4.579944 2.081971
v 0.658869 4.580354 1.987625
v 0.521603 4.580307 2.171649
v 0.196358 4.580307 1.929409
v 0.333359 4.580354 1.745188
v 0.728525 5.127973 2.009575
v 0.562042 5.127939 2.232290
v 0.126675 5.127938 1.908033
v 0.292378 5.127973 1.684736
v 0.276057 4.867418 2.047951
v 0.434954 5.043032 2.176931
v 0.216107 5.043033 2.013933
v 0.330643 4.867465 2.088577
v 0.661536 4.582682 1.987162
v 0.522152 4.582682 2.174307
v 0.193654 4.582682 1.929644
v 0.333038 4.582682 1.742499
v 0.385223 4.867416 2.129252
v 0.532844 5.149002 1.817089
v 0.490545 5.149002 1.785585
v 0.575143 5.149002 1.848593
v 0.589665 4.580286 2.079112
v 0.495658 4.580187 1.867018
v 0.693690 4.854164 1.998557
v 0.359516 4.580399 2.049810
v 0.542061 4.854117 2.201884
v 0.265525 4.580286 1.837695
v 0.161530 4.854117 1.918468
v 0.312911 4.854164 1.714956
v 0.645011 5.127903 2.120333
v 0.390463 5.138403 1.734914
v 0.171032 5.085380 1.959839
v 0.210179 5.127903 1.796473
v 0.303193 4.867465 2.068133
v 0.499697 5.085380 2.204627
v 0.246060 4.955267 2.030927
v 0.358092 4.867465 2.109021
v 0.591844 4.582682 2.080734
v 0.497287 4.582682 1.864830
v 0.357903 4.582682 2.051975
v 0.263346 4.582682 1.836072
v 0.410125 4.955265 2.153117
v 0.553994 5.149002 1.832841
v 0.511695 5.149002 1.801337
v 0.652357 5.138403 1.929970
v 0.237852 4.854095 1.817084
v 0.617338 4.854095 2.099722
v 0.427595 4.582682 1.958403
v 0.554819 4.580286 2.125898
v 0.413534 4.580187 1.805852
v 0.711106 4.991068 2.004057
v 0.277755 4.580257 1.988940
v 0.552318 4.991022 2.216995
v 0.300371 4.580286 1.790908
v 0.144114 4.991022 1.912968
v 0.302654 4.991068 1.699845
v 0.603006 5.127903 2.176731
v 0.340422 5.133104 1.709578
v 0.148492 5.106564 1.932792
v 0.252184 5.127903 1.740075
v 0.289469 4.867465 2.057911
v 0.467306 5.064234 2.190772
v 0.231061 4.999192 2.022416
v 0.344367 4.867465 2.098799
v 0.556998 4.582682 2.127520
v 0.415163 4.582682 1.803665
v 0.275779 4.582682 1.990810
v 0.298192 4.582682 1.789286
v 0.397674 4.911341 2.141184
v 0.543419 5.149002 1.824965
v 0.501120 5.149002 1.793461
v 0.613750 5.143703 1.889282
v 0.624511 4.580286 2.032325
v 0.577783 4.580187 1.928183
v 0.676274 4.717260 1.993058
v 0.441283 4.580306 2.110735
v 0.531804 4.717213 2.186773
v 0.230679 4.580286 1.884481
v 0.178946 4.717213 1.923967
v 0.323168 4.717260 1.730067
v 0.687016 5.127903 2.063935
v 0.440504 5.143703 1.760249
v 0.193577 5.064235 1.986898
v 0.168174 5.127903 1.852871
v 0.316918 4.867465 2.078355
v 0.532072 5.106564 2.218479
v 0.261058 4.911343 2.039439
v 0.371817 4.867465 2.119243
v 0.626690 4.582682 2.033948
v 0.579412 4.582682 1.925996
v 0.440028 4.582682 2.113141
v 0.228500 4.582682 1.882858
v 0.422576 4.999190 2.165049
v 0.564569 5.149002 1.840717
v 0.522270 5.149002 1.809213
v 0.690964 5.133104 1.970658
v 0.276277 4.854095 1.765492
v 0.199427 4.854095 1.868676
v 0.251689 4.717191 1.827389
v 0.224016 4.990999 1.806779
v 0.578913 4.854095 2.151314
v 0.655764 4.854095 2.048130
v 0.603502 4.717191 2.089417
v 0.631175 4.990999 2.110027
v 0.345471 4.582682 1.897237
v 0.509720 4.582682 2.019568
v 0.462441 4.582682 1.911617
v 0.392749 4.582682 2.005189
v 0.474874 4.582682 2.066355
v 0.544566 4.582682 1.972782
v 0.380317 4.582682 1.850451
v 0.671390 4.990999 2.056032
v 0.640138 4.717191 2.040227
v 0.566866 4.717191 2.138606
v 0.183800 4.990999 1.860774
v 0.215053 4.717191 1.876578
v 0.288324 4.717191 1.778200
v 0.264231 4.990999 1.752784
v 0.590960 4.990999 2.164022
v 0.310625 4.582682 1.944024
v 0.237498 4.580212 1.958949
v 0.481488 4.580212 2.140672
v 0.280920 4.580307 1.991299
v 0.319173 4.580378 2.019768
v 0.278828 4.867442 2.049992
v 0.380470 4.867441 2.125692
v 0.399639 4.580376 2.079696
vn 0.0000 -1.0000 0.0000
vn 0.7957 -0.1250 0.5926
vn -0.7957 -0.1250 -0.5926
vn 0.5950 -0.0888 -0.7988
vn -0.7173 -0.0789 0.6922
vn -0.4425 -0.1142 0.8895
vn -0.7032 -0.1491 0.6951
vn -0.5890 -0.1660 0.7909
vn 0.0000 1.0000 0.0000
vn -0.8001 0.1236 -0.5869
vn 0.8028 0.1247 0.5831
vn -0.5950 0.0885 0.7989
vn 0.8034 0.1246 0.5822
vn 0.7957 0.1250 0.5926
vn -0.8020 0.1247 -0.5842
vn -0.7957 0.1250 -0.5926
vn -0.8025 0.1245 -0.5835
vn 0.8041 0.1244 0.5813
vn 0.8031 0.1246 0.5827
vn -0.8017 0.1247 -0.5846
vn 0.7089 0.0776 -0.7011
vn 0.4425 0.1142 -0.8895
vn 0.7033 0.1490 -0.6951
vn 0.5891 0.1660 -0.7908
vn -0.1187 -0.9891 -0.0872
vn -0.0836 -0.9904 0.1101
vn 0.0820 -0.9901 -0.1138
vn 0.1316 -0.9867 0.0957
vn 0.1126 0.9902 0.0832
vn -0.0328 0.9894 -0.1415
vn 0.0878 0.8050 0.5867
vn -0.1307 0.9868 -0.0955
vn -0.0944 0.9880 0.1219
vn -0.5007 0.8544 -0.1387
vn 0.6181 0.3475 0.7051
vn -0.0991 0.9861 0.1331
vn 0.8020 0.0000 0.5973
vn 0.5973 0.0000 -0.8020
vn -0.5973 0.0000 0.8020
vn -0.8020 0.0000 -0.5973
vn 0.0530 0.9961 -0.0711
vn 0.0529 0.9961 -0.0711
vn 0.1410 0.9900 -0.0048
vn -0.1001 -0.9922 -0.0745
vn -0.0530 -0.9961 0.0710
vn 0.0966 -0.9868 -0.1300
vn 0.1001 -0.9922 0.0744
vn 0.1003 0.9922 0.0747
vn -0.0357 0.9900 -0.1366
vn -0.1003 0.9922 -0.0747
vn 0.6206 0.3481 0.7026
vn 0.5974 0.0000 -0.8020
vn 0.1411 0.9900 -0.0050
vn -0.0530 -0.9961 0.0711
vn 0.3026 0.8561 0.4189
vn -0.4950 0.8556 -0.1514
vn 0.6207 0.3481 0.7025
vn -0.0815 -0.9904 0.1116
vn 0.0687 -0.9932 -0.0937
vn -0.0357 0.9900 -0.1364
vn 0.6208 0.3481 0.7025
vn -0.0958 0.9868 0.1304
vn 0.1450 0.9894 -0.0089
vn 0.0881 -0.9892 -0.1170
vn -0.4578 -0.0789 0.8855
vn -0.7216 -0.1145 0.6828
vn -0.4727 -0.1483 0.8686
vn 0.4687 0.0776 -0.8799
vn -0.7883 0.1246 -0.6025
vn -0.7886 0.1247 -0.6022
vn -0.7873 0.1244 -0.6039
vn -0.7879 0.1246 -0.6030
vn 0.7897 0.1247 0.6007
vn 0.7915 0.1236 0.5985
vn 0.7889 0.1245 0.6018
vn 0.7894 0.1247 0.6011
vn 0.7216 0.1145 -0.6828
vn 0.4727 0.1483 -0.8687
vn 0.5889 0.1660 -0.7909
vn -0.8468 0.3491 -0.4013
vn 0.2882 0.8557 0.4298
vn -0.4882 0.8561 -0.1695
vn -0.1001 -0.9922 -0.0746
vn 0.0793 -0.9922 -0.0957
vn 0.1001 -0.9922 0.0745
vn -0.1294 -0.9867 -0.0987
vn 0.1174 -0.9891 0.0889
vn 0.1289 0.9868 0.0979
vn 0.2779 0.8546 0.4386
vn -0.1118 0.9902 -0.0841
vn -0.0991 0.9862 0.1329
vn -0.5873 0.8050 0.0839
vn -0.8514 0.3475 -0.3929
vn 0.0646 -0.9942 -0.0859
vn 0.0854 -0.9901 -0.1112
vn 0.0971 -0.9867 -0.1301
vn -0.0975 0.9868 0.1296
vn -0.0903 0.9881 0.1242
vn 0.0866 -0.9893 -0.1174
s off
f 119//1 66//1 15//1 91//1
f 118//2 56//2 6//2 52//2
f 117//3 59//3 8//3 55//3
f 5//4 50//4 23//4 74//4 1//4 73//4 22//4 49//4 4//4 79//4 28//4 55//4 8//4 57//4 30//4 81//4 19//4 70//4 43//4 94//4 18//4 69//4 42//4 93//4 20//4 71//4 44//4 95//4
f 116//3 96//3 28//3 79//3
f 115//3 97//3 45//3 98//3
f 114//3 83//3 32//3 99//3
f 113//2 100//2 25//2 76//2
f 112//2 101//2 46//2 102//2
f 111//2 80//2 29//2 103//2
f 110//1 104//1 40//1 67//1
f 109//1 105//1 47//1 106//1
f 108//1 90//1 39//1 107//1
f 105//1 108//1 107//1 47//1
f 37//1 64//1 108//1 105//1
f 64//1 14//1 90//1 108//1
f 89//1 109//1 106//1 38//1
f 13//1 88//1 109//1 89//1
f 88//1 37//1 105//1 109//1
f 65//1 110//1 67//1 16//1
f 38//1 106//1 110//1 65//1
f 106//1 47//1 104//1 110//1
f 101//2 111//2 103//2 46//2
f 72//2 112//2 102//2 21//2
f 48//2 113//2 76//2 2//2
f 97//3 114//3 99//3 45//3
f 77//3 115//3 98//3 26//3
f 53//3 116//3 79//3 4//3
f 96//3 117//3 55//3 28//3
f 100//2 118//2 52//2 25//2
f 104//1 119//1 91//1 40//1
f 47//1 107//1 119//1 104//1
f 107//1 39//1 66//1 119//1
f 120//5 31//5 58//5 7//5 54//5 27//5 78//5 3//5
f 121//6 34//6 61//6 10//6 75//6
f 123//7 124//7 9//7 86//7 35//7 62//7 11//7 122//7
f 126//8 125//8 87//8 36//8 63//8 12//8 24//8
f 245//9 217//9 141//9 192//9
f 244//10 178//10 132//10 182//10
f 243//11 181//11 134//11 185//11
f 131//12 221//12 170//12 197//12 146//12 219//12 168//12 195//12 144//12 220//12 169//12 196//12 145//12 207//12 156//12 183//12 134//12 181//12 154//12 205//12 130//12 175//12 148//12 199//12 127//12 200//12 149//12 176//12
f 242//13 205//13 154//13 222//13
f 241//14 224//14 171//14 223//14
f 240//14 225//14 158//14 209//14
f 239//15 202//15 151//15 226//15
f 238//16 228//16 172//16 227//16
f 237//16 229//16 155//16 206//16
f 236//9 193//9 166//9 230//9
f 235//9 232//9 173//9 231//9
f 234//9 233//9 165//9 216//9
f 231//9 173//9 233//9 234//9
f 163//9 231//9 234//9 190//9
f 190//9 234//9 216//9 140//9
f 215//9 164//9 232//9 235//9
f 139//9 215//9 235//9 214//9
f 214//9 235//9 231//9 163//9
f 191//9 142//9 193//9 236//9
f 164//9 191//9 236//9 232//9
f 232//9 236//9 230//9 173//9
f 227//16 172//16 229//16 237//16
f 198//16 147//16 228//16 238//16
f 174//17 128//17 202//17 239//17
f 223//14 171//14 225//14 240//14
f 203//14 152//14 224//14 241//14
f 179//18 130//18 205//18 242//18
f 222//19 154//19 181//19 243//19
f 226//20 151//20 178//20 244//20
f 230//9 166//9 217//9 245//9
f 173//9 230//9 245//9 233//9
f 233//9 245//9 192//9 165//9
f 246//21 129//21 204//21 153//21 180//21 133//21 184//21 157//21
f 247//22 201//22 136//22 187//22 160//22
f 249//23 248//23 137//23 188//23 161//23 212//23 135//23 250//23
f 252//24 150//24 138//24 189//24 162//24 213//24 251//24
f 48//25 2//25 128//25 174//25
f 4//26 49//26 175//26 130//26
f 120//27 3//27 129//27 246//27
f 53//28 4//28 130//28 179//28
f 6//29 56//29 182//29 132//29
f 57//30 8//30 134//30 183//30
f 7//31 58//31 184//31 133//31
f 8//32 59//32 185//32 134//32
f 9//33 124//33 250//33 135//33
f 10//34 61//34 187//34 136//34
f 11//35 62//35 188//35 137//35
f 12//36 63//36 189//36 138//36
f 14//37 64//37 190//37 140//37
f 65//38 16//38 142//38 191//38
f 15//39 66//39 192//39 141//39
f 16//40 67//40 193//40 142//40
f 69//41 18//41 144//41 195//41
f 70//42 19//42 145//42 196//42
f 71//43 20//43 146//43 197//43
f 72//44 21//44 147//44 198//44
f 22//45 73//45 199//45 148//45
f 126//46 24//46 150//46 252//46
f 77//47 26//47 152//47 203//47
f 29//48 80//48 206//48 155//48
f 81//49 30//49 156//49 207//49
f 32//50 83//50 209//50 158//50
f 35//51 86//51 212//51 161//51
f 36//36 87//36 213//36 162//36
f 37//37 88//37 214//37 163//37
f 89//52 38//52 164//52 215//52
f 39//39 90//39 216//39 165//39
f 40//40 91//40 217//40 166//40
f 93//41 42//41 168//41 219//41
f 94//42 43//42 169//42 220//42
f 95//53 44//53 170//53 221//53
f 49//54 22//54 148//54 175//54
f 30//49 57//49 183//49 156//49
f 58//55 31//55 157//55 184//55
f 61//56 34//56 160//56 187//56
f 62//57 35//57 161//57 188//57
f 63//36 36//36 162//36 189//36
f 64//37 37//37 163//37 190//37
f 38//38 65//38 191//38 164//38
f 66//39 39//39 165//39 192//39
f 67//40 40//40 166//40 193//40
f 42//42 69//42 195//42 168//42
f 43//42 70//42 196//42 169//42
f 44//53 71//53 197//53 170//53
f 73//58 1//58 127//58 199//58
f 121//59 75//59 201//59 247//59
f 19//60 81//60 207//60 145//60
f 86//61 9//61 135//61 212//61
f 87//62 125//62 251//62 213//62
f 88//37 13//37 139//37 214//37
f 13//38 89//38 215//38 139//38
f 90//39 14//39 140//39 216//39
f 91//40 15//40 141//40 217//40
f 20//42 93//42 219//42 146//42
f 18//42 94//42 220//42 144//42
f 5//63 95//63 221//63 131//63
f 123//64 122//64 248//64 249//64
f 2//65 76//65 25//65 52//65 6//65 85//65 34//65 121//65
f 23//2 50//2 111//2 101//2
f 50//2 5//2 80//2 111//2
f 1//2 74//2 112//2 72//2
f 74//2 23//2 101//2 112//2
f 21//2 102//2 113//2 48//2
f 102//2 46//2 100//2 113//2
f 27//3 54//3 114//3 97//3
f 54//3 7//3 83//3 114//3
f 3//3 78//3 115//3 77//3
f 78//3 27//3 97//3 115//3
f 26//3 98//3 116//3 53//3
f 98//3 45//3 96//3 116//3
f 45//3 99//3 117//3 96//3
f 99//3 32//3 59//3 117//3
f 46//2 103//2 118//2 100//2
f 103//2 29//2 56//2 118//2
f 122//66 11//66 82//66 31//66 120//66 51//66
f 75//67 10//67 92//67 41//67 68//67 17//67 125//67 126//67
f 24//8 12//8 84//8 33//8 60//8 124//8 123//8
f 128//68 247//68 160//68 211//68 132//68 178//68 151//68 202//68
f 149//69 227//69 237//69 176//69
f 176//70 237//70 206//70 131//70
f 127//71 198//71 238//71 200//71
f 200//72 238//72 227//72 149//72
f 147//16 174//16 239//16 228//16
f 228//16 239//16 226//16 172//16
f 153//73 223//73 240//73 180//73
f 180//74 240//74 209//74 133//74
f 129//75 203//75 241//75 204//75
f 204//76 241//76 223//76 153//76
f 152//14 179//14 242//14 224//14
f 224//14 242//14 222//14 171//14
f 171//14 222//14 243//14 225//14
f 225//14 243//14 185//14 158//14
f 172//16 226//16 244//16 229//16
f 229//16 244//16 182//16 155//16
f 248//77 177//77 246//77 157//77 208//77 137//77
f 201//78 252//78 251//78 143//78 194//78 167//78 218//78 136//78
f 150//79 249//79 250//79 186//79 159//79 210//79 138//79
f 17//80 68//80 194//80 143//80
f 31//81 82//81 208//81 157//81
f 33//36 84//36 210//36 159//36
f 34//82 85//82 211//82 160//82
f 41//80 92//80 218//80 167//80
f 21//83 48//83 174//83 147//83
f 122//84 51//84 177//84 248//84
f 26//85 53//85 179//85 152//85
f 56//48 29//48 155//48 182//48
f 59//50 32//50 158//50 185//50
f 60//36 33//36 159//36 186//36
f 68//80 41//80 167//80 194//80
f 1//86 72//86 198//86 127//86
f 3//87 77//87 203//87 129//87
f 80//88 5//88 131//88 206//88
f 82//89 11//89 137//89 208//89
f 83//90 7//90 133//90 209//90
f 84//91 12//91 138//91 210//91
f 85//92 6//92 132//92 211//92
f 92//93 10//93 136//93 218//93
f 51//94 120//94 246//94 177//94
f 2//95 121//95 247//95 128//95
f 24//96 123//96 249//96 150//96
f 124//97 60//97 186//97 250//97
f 125//98 17//98 143//98 251//98
f 75//99 126//99 252//99 201//99
