# Blender v2.91.0 OBJ File: 'table.blend'
# www.blender.org
mtllib tel.mtl
o Cube.045_Cube.047
v 2.592782 5.538220 -0.604546
v 3.085692 5.538220 -0.897196
v 3.085692 5.538220 -0.604546
v 2.592782 5.477413 -0.897196
v 3.085692 5.477413 -0.897196
v 2.592782 5.538220 -0.897196
v 2.592782 5.477413 -0.604546
v 3.085692 5.477413 -0.604546
vn 0.0000 1.0000 0.0000
vn 0.0000 0.0000 -1.0000
vn -1.0000 0.0000 0.0000
vn 0.0000 -1.0000 0.0000
vn 1.0000 0.0000 0.0000
vn 0.0000 0.0000 1.0000
usemtl Default_OBJ.016
s 1
f 1//1 3//1 2//1
f 2//2 5//2 4//2
f 6//3 4//3 7//3
f 8//4 7//4 4//4
f 3//5 8//5 5//5
f 1//6 7//6 8//6
f 1//1 2//1 6//1
f 2//2 4//2 6//2
f 6//3 7//3 1//3
f 8//4 4//4 5//4
f 3//5 5//5 2//5
f 1//6 8//6 3//6
